# xmcd
#
# Track frame offsets: 
#        150
#        10455
#        33801
#        46581
#        72362
#        98503
#        124056
#        136733
#        153012
#        165785
#        195298
#        211506
#        228368
#        240120
#        264318
#        280106
#        295362
#
# Disc length: 4220 seconds
#
# Revision: 1
# Processed by: cddbd v1.5.2PL0 Copyright (c) Steve Scherf et al.
# Submitted via: ExactAudioCopy v0.90b4
#
DISCID=c3107a11
DTITLE=Various Artist - Simply The Best Latin Jazz [CD1]
DYEAR=2000
DGENRE=Jazz
TTITLE0=Astrud Gilberto and Antonio Carlos Jobim - Aqua De Beber
TTITLE1=Stan Getz and Joao Gilberto - The Girl From Ipanema
TTITLE2=Antonio Carlos Jobim - Wave
TTITLE3=David Stanborn - This Masquerade
TTITLE4=Stan Getz and Charlie Byrd - Desafinado
TTITLE5=James Moody - Slow Hot Wind
TTITLE6=Oscar Peterson - Corcovado
TTITLE7=Gabriela Anders - Brasileira
TTITLE8=Toots Thielemans - The Gentle Rain
TTITLE9=Joao Gilberto - Aquarela Do Brasil
TTITLE10=Antonio Carlos Jobim - So Danco Samba
TTITLE11=Wes Montgomery - Isnensatez
TTITLE12=Sergio Mendes - Mais Que Nada
TTITLE13=The Earl Klugh Trio - Days Of  Wine And Roses
TTITLE14=Elis Regina and Antonio Carlos Jobim - Aguas De Marco
TTITLE15=Shirley Horn - How Am I To Know
TTITLE16=Eddie Harris - 'S Wonderful
EXTD=
EXTT0=
EXTT1=
EXTT2=
EXTT3=
EXTT4=
EXTT5=
EXTT6=
EXTT7=
EXTT8=
EXTT9=
EXTT10=
EXTT11=
EXTT12=
EXTT13=
EXTT14=
EXTT15=
EXTT16=
PLAYORDER=
